<svg xmlns="http://www.w3.org/2000/svg" width="208" height="36" viewBox="0 0 208 36">
    <g fill="none" fill-rule="evenodd">
        <path fill="#EFEFEF" fill-rule="nonzero" d="M51.259 2.302V34H47V2.302h4.259zm17.219 0V34h-4.26l-5.037-16.633V34h-4.259V2.302h3.664l5.633 18.677V2.302h4.259zm3.663-.015h10.304V6.42H76.4v8.887h4.213v4.135H76.4v14.542h-4.259V2.287zm12.731.015h4.167c3.435 0 4.992.57 6.228 2.233 1.1 1.474 1.603 3.612 1.603 6.606 0 3.945-.412 5.37-2.152 7.699L97.694 34h-4.579l-2.473-13.64c-.733.143-.87.143-1.511.19V34h-4.259V2.302zm4.259 13.872h.595c1.374 0 2.153-.317 2.565-1.087.32-.589.412-1.313.412-4.076 0-3.26-.596-4.03-2.977-4.03h-.595v9.193zm23.538-5.915v15.134c0 3.691-.137 4.43-.962 5.767-1.007 1.57-2.93 2.538-5.083 2.538-2.152 0-4.075-.969-5.083-2.538-.824-1.338-.962-2.122-.962-5.767V10.259c0-3.645.138-4.43.962-5.767C102.55 2.969 104.472 2 106.624 2c2.153 0 4.076.969 5.083 2.492.825 1.338.962 2.122.962 5.767zm-4.259 17.054V8.973c0-1.72-.503-2.445-1.786-2.445-1.236 0-1.786.725-1.786 2.446v18.34c0 1.72.504 2.444 1.786 2.444 1.237 0 1.786-.724 1.786-2.445zm21.386-25.011V34h-4.259L120.5 17.367V34h-4.259V2.302h3.664l5.632 18.677V2.302h4.26zM136.574 34V6.436h-3.984V2.302H145v4.134h-4.167V34h-4.26z"/>
        <rect width="31" height="32" x="6" y="2" fill="#EE7D22" rx="4"/>
        <path fill="#FFF" fill-rule="nonzero" d="M18.636 35.965l-4.25-1.245a.846.846 0 0 1-.572-1.047L23.326.609a.836.836 0 0 1 1.038-.576l4.25 1.244a.846.846 0 0 1 .572 1.048l-9.512 33.063a.834.834 0 0 1-1.038.577zm-7.9-8.225l2.832-3.154a.841.841 0 0 0-.052-1.17L7.618 18l5.898-5.418a.835.835 0 0 0 .052-1.17l-2.832-3.154a.759.759 0 0 0-1.106-.034L.249 17.401a.835.835 0 0 0 0 1.19l9.38 9.183c.32.313.814.3 1.107-.034zm22.634.04l9.381-9.182a.835.835 0 0 0 0-1.189l-9.38-9.189a.765.765 0 0 0-1.107.034l-2.832 3.154a.84.84 0 0 0 .052 1.169L35.382 18l-5.898 5.417a.834.834 0 0 0-.052 1.17l2.832 3.153a.76.76 0 0 0 1.106.04z"/>
        <path fill="#EE7D22" fill-rule="nonzero" d="M149 34V2h4.377v27.826h6.213V34H149zm18.458-7.196l-.73 7.196h-4.113l4.158-32h5.483l3.975 32h-4.158l-.777-7.196h-3.838zm3.478-4.233l-1.513-14.476-1.513 14.476h3.026zM179.256 2h3.943c3.754 0 4.88.336 6.43 1.919 1.36 1.391 1.923 3.214 1.923 6.141 0 4.03-.657 5.71-2.816 7.1 2.535 1.008 3.38 2.831 3.38 7.437 0 3.838-.423 5.613-1.643 7.1-1.361 1.631-3.38 2.303-6.852 2.303h-4.365V2zm4.539 27.429h.387c2.793 0 3.395-.918 3.395-4.953s-.602-4.952-3.395-4.952h-.387v9.905zm0-13.715h.63c2.619 0 3.152-.818 3.152-4.86 0-3.416-.63-4.283-3.152-4.283h-.63v9.143zm11.393 8.83l4.286-.186v1.35c0 3.215.559 4.24 2.236 4.24 1.305 0 1.957-1.072 1.957-3.075 0-2.05-.512-3.26-2.656-6.102l-2.143-3.167c-2.655-4.006-3.54-6.148-3.54-8.897 0-4.099 2.469-6.707 6.382-6.707 2.935 0 5.079 1.677 5.684 4.518.233 1.165.233 1.304.233 3.866l-4.24.42c0-1.584-.046-2.143-.14-2.795-.139-1.258-.838-1.957-1.816-1.957-1.165 0-1.817 1.025-1.817 2.888 0 1.91.186 2.33 3.075 6.661l2.19 3.168c2.003 2.934 3.121 6.101 3.121 8.756 0 4.146-2.283 6.475-6.336 6.475-2.33 0-3.96-.745-5.172-2.376-1.025-1.397-1.351-2.701-1.351-5.403 0-.652 0-.931.047-1.677z"/>
    </g>
</svg>
